<mxfile host="Electron" modified="2025-05-22T22:06:20.197Z" agent="Mozilla/5.0 (Windows NT 10.0; Win64; x64) AppleWebKit/537.36 (KHTML, like Gecko) draw.io/24.4.0 Chrome/120.0.6099.109 Electron/28.1.0 Safari/537.36" etag="eUv-DBi1kVISkcGzecky" version="24.4.0" type="device">
  <diagram name="Страница — 1" id="2VKGkE74jw7KdnsFAE6t">
    <mxGraphModel dx="1877" dy="1798" grid="1" gridSize="10" guides="1" tooltips="1" connect="1" arrows="1" fold="1" page="1" pageScale="1" pageWidth="827" pageHeight="1169" math="0" shadow="0">
      <root>
        <mxCell id="0" />
        <mxCell id="1" parent="0" />
        <mxCell id="xKL4e-_KKHv5BEFXwnsZ-1" value="Посетитель&lt;div&gt;&lt;br&gt;&lt;/div&gt;" style="shape=umlActor;verticalLabelPosition=bottom;verticalAlign=top;html=1;outlineConnect=0;" parent="1" vertex="1">
          <mxGeometry x="-200" y="100" width="30" height="60" as="geometry" />
        </mxCell>
        <mxCell id="xKL4e-_KKHv5BEFXwnsZ-2" value="Поиск вакансий" style="ellipse;whiteSpace=wrap;html=1;" parent="1" vertex="1">
          <mxGeometry x="190" y="50" width="80" height="50" as="geometry" />
        </mxCell>
        <mxCell id="xKL4e-_KKHv5BEFXwnsZ-3" value="по названию" style="ellipse;whiteSpace=wrap;html=1;" parent="1" vertex="1">
          <mxGeometry x="30" y="30" width="80" height="50" as="geometry" />
        </mxCell>
        <mxCell id="xKL4e-_KKHv5BEFXwnsZ-4" value="&lt;div&gt;Отфильтровать&lt;/div&gt;" style="ellipse;whiteSpace=wrap;html=1;" parent="1" vertex="1">
          <mxGeometry x="480" y="-140" width="110" height="50" as="geometry" />
        </mxCell>
        <mxCell id="xKL4e-_KKHv5BEFXwnsZ-5" value="По зарплате" style="ellipse;whiteSpace=wrap;html=1;" parent="1" vertex="1">
          <mxGeometry x="717.5" y="-480" width="90" height="50" as="geometry" />
        </mxCell>
        <mxCell id="xKL4e-_KKHv5BEFXwnsZ-6" value="По дате публикации&lt;div&gt;&lt;br&gt;&lt;/div&gt;" style="ellipse;whiteSpace=wrap;html=1;" parent="1" vertex="1">
          <mxGeometry x="720" y="-350" width="90" height="50" as="geometry" />
        </mxCell>
        <mxCell id="xKL4e-_KKHv5BEFXwnsZ-7" value="По типу занятости" style="ellipse;whiteSpace=wrap;html=1;" parent="1" vertex="1">
          <mxGeometry x="717.5" y="-290" width="100" height="60" as="geometry" />
        </mxCell>
        <mxCell id="xKL4e-_KKHv5BEFXwnsZ-10" value="include" style="endArrow=open;endSize=12;dashed=1;html=1;rounded=0;exitX=1;exitY=0.5;exitDx=0;exitDy=0;entryX=0;entryY=0.5;entryDx=0;entryDy=0;" parent="1" source="xKL4e-_KKHv5BEFXwnsZ-4" target="xKL4e-_KKHv5BEFXwnsZ-6" edge="1">
          <mxGeometry width="160" relative="1" as="geometry">
            <mxPoint x="385" y="70" as="sourcePoint" />
            <mxPoint x="545" y="70" as="targetPoint" />
          </mxGeometry>
        </mxCell>
        <mxCell id="xKL4e-_KKHv5BEFXwnsZ-11" value="include" style="endArrow=open;endSize=12;dashed=1;html=1;rounded=0;exitX=1;exitY=0.5;exitDx=0;exitDy=0;entryX=0;entryY=0.5;entryDx=0;entryDy=0;" parent="1" source="xKL4e-_KKHv5BEFXwnsZ-4" target="xKL4e-_KKHv5BEFXwnsZ-5" edge="1">
          <mxGeometry width="160" relative="1" as="geometry">
            <mxPoint x="340" y="10" as="sourcePoint" />
            <mxPoint x="500" y="10" as="targetPoint" />
          </mxGeometry>
        </mxCell>
        <mxCell id="xKL4e-_KKHv5BEFXwnsZ-12" value="include" style="endArrow=open;endSize=12;dashed=1;html=1;rounded=0;exitX=1;exitY=0.5;exitDx=0;exitDy=0;entryX=0;entryY=0.5;entryDx=0;entryDy=0;" parent="1" source="xKL4e-_KKHv5BEFXwnsZ-4" target="xKL4e-_KKHv5BEFXwnsZ-7" edge="1">
          <mxGeometry width="160" relative="1" as="geometry">
            <mxPoint x="405" y="90" as="sourcePoint" />
            <mxPoint x="565" y="90" as="targetPoint" />
          </mxGeometry>
        </mxCell>
        <mxCell id="xKL4e-_KKHv5BEFXwnsZ-13" value="include" style="endArrow=open;endSize=12;dashed=1;html=1;rounded=0;exitX=0.5;exitY=0;exitDx=0;exitDy=0;entryX=0.5;entryY=1;entryDx=0;entryDy=0;" parent="1" source="xKN2lqhcbGi1oijNFUyC-15" target="xKL4e-_KKHv5BEFXwnsZ-3" edge="1">
          <mxGeometry width="160" relative="1" as="geometry">
            <mxPoint x="260" y="380" as="sourcePoint" />
            <mxPoint x="420" y="380" as="targetPoint" />
          </mxGeometry>
        </mxCell>
        <mxCell id="xKL4e-_KKHv5BEFXwnsZ-14" value="Работник&lt;div&gt;&lt;br&gt;&lt;/div&gt;" style="shape=umlActor;verticalLabelPosition=bottom;verticalAlign=top;html=1;" parent="1" vertex="1">
          <mxGeometry x="-210" y="300" width="30" height="60" as="geometry" />
        </mxCell>
        <mxCell id="xKL4e-_KKHv5BEFXwnsZ-19" value="Работодатель" style="shape=umlActor;verticalLabelPosition=bottom;verticalAlign=top;html=1;" parent="1" vertex="1">
          <mxGeometry x="-218.25" y="560" width="30" height="60" as="geometry" />
        </mxCell>
        <mxCell id="xKL4e-_KKHv5BEFXwnsZ-20" value="Пройти регистрацию на поиск работы" style="ellipse;whiteSpace=wrap;html=1;" parent="1" vertex="1">
          <mxGeometry x="-80" y="-260" width="90" height="60" as="geometry" />
        </mxCell>
        <mxCell id="xKL4e-_KKHv5BEFXwnsZ-21" value="Пройти регистрацию на поиск сотрудников" style="ellipse;whiteSpace=wrap;html=1;" parent="1" vertex="1">
          <mxGeometry x="-75" y="-80" width="130" height="70" as="geometry" />
        </mxCell>
        <mxCell id="xKN2lqhcbGi1oijNFUyC-1" value="Составить резюме" style="ellipse;whiteSpace=wrap;html=1;" parent="1" vertex="1">
          <mxGeometry x="100" y="-260" width="91" height="60" as="geometry" />
        </mxCell>
        <mxCell id="xKN2lqhcbGi1oijNFUyC-3" value="include" style="endArrow=open;endSize=12;dashed=1;html=1;rounded=0;exitX=1;exitY=0.5;exitDx=0;exitDy=0;entryX=0;entryY=0.5;entryDx=0;entryDy=0;" parent="1" source="xKL4e-_KKHv5BEFXwnsZ-20" target="xKN2lqhcbGi1oijNFUyC-1" edge="1">
          <mxGeometry width="160" relative="1" as="geometry">
            <mxPoint x="55" y="-130" as="sourcePoint" />
            <mxPoint x="215" y="-130" as="targetPoint" />
          </mxGeometry>
        </mxCell>
        <mxCell id="xKN2lqhcbGi1oijNFUyC-4" value="Редактировать резюме" style="ellipse;whiteSpace=wrap;html=1;" parent="1" vertex="1">
          <mxGeometry x="300" y="-257.5" width="89" height="55" as="geometry" />
        </mxCell>
        <mxCell id="xKN2lqhcbGi1oijNFUyC-6" value="Extends" style="endArrow=block;endSize=16;endFill=0;html=1;rounded=0;entryX=1;entryY=0.5;entryDx=0;entryDy=0;exitX=0;exitY=0.5;exitDx=0;exitDy=0;" parent="1" source="xKL4e-_KKHv5BEFXwnsZ-4" target="xKL4e-_KKHv5BEFXwnsZ-2" edge="1">
          <mxGeometry width="160" relative="1" as="geometry">
            <mxPoint x="330" y="330" as="sourcePoint" />
            <mxPoint x="490" y="330" as="targetPoint" />
          </mxGeometry>
        </mxCell>
        <mxCell id="xKN2lqhcbGi1oijNFUyC-7" value="По региону" style="ellipse;whiteSpace=wrap;html=1;" parent="1" vertex="1">
          <mxGeometry x="717.5" y="-540" width="90" height="50" as="geometry" />
        </mxCell>
        <mxCell id="xKN2lqhcbGi1oijNFUyC-8" value="include" style="endArrow=open;endSize=12;dashed=1;html=1;rounded=0;exitX=1;exitY=0.5;exitDx=0;exitDy=0;entryX=0;entryY=0.5;entryDx=0;entryDy=0;" parent="1" source="xKL4e-_KKHv5BEFXwnsZ-4" target="xKN2lqhcbGi1oijNFUyC-7" edge="1">
          <mxGeometry width="160" relative="1" as="geometry">
            <mxPoint x="510" y="-95" as="sourcePoint" />
            <mxPoint x="605" y="-175" as="targetPoint" />
          </mxGeometry>
        </mxCell>
        <mxCell id="xKN2lqhcbGi1oijNFUyC-9" value="&lt;div&gt;По специализации&lt;/div&gt;" style="ellipse;whiteSpace=wrap;html=1;" parent="1" vertex="1">
          <mxGeometry x="707.5" y="-420" width="115" height="60" as="geometry" />
        </mxCell>
        <mxCell id="xKN2lqhcbGi1oijNFUyC-10" value="По типу вакансии" style="ellipse;whiteSpace=wrap;html=1;" parent="1" vertex="1">
          <mxGeometry x="722.5" y="-220" width="100" height="60" as="geometry" />
        </mxCell>
        <mxCell id="xKN2lqhcbGi1oijNFUyC-11" value="include" style="endArrow=open;endSize=12;dashed=1;html=1;rounded=0;exitX=1;exitY=0.5;exitDx=0;exitDy=0;entryX=0;entryY=0.5;entryDx=0;entryDy=0;" parent="1" source="xKL4e-_KKHv5BEFXwnsZ-4" target="xKN2lqhcbGi1oijNFUyC-9" edge="1">
          <mxGeometry width="160" relative="1" as="geometry">
            <mxPoint x="510" y="-95" as="sourcePoint" />
            <mxPoint x="605" y="70" as="targetPoint" />
          </mxGeometry>
        </mxCell>
        <mxCell id="xKN2lqhcbGi1oijNFUyC-12" value="include" style="endArrow=open;endSize=12;dashed=1;html=1;rounded=0;exitX=1;exitY=0.5;exitDx=0;exitDy=0;entryX=0;entryY=0.5;entryDx=0;entryDy=0;" parent="1" source="xKL4e-_KKHv5BEFXwnsZ-4" target="xKN2lqhcbGi1oijNFUyC-10" edge="1">
          <mxGeometry width="160" relative="1" as="geometry">
            <mxPoint x="520" y="-85" as="sourcePoint" />
            <mxPoint x="615" y="80" as="targetPoint" />
          </mxGeometry>
        </mxCell>
        <mxCell id="xKN2lqhcbGi1oijNFUyC-13" value="по городу" style="ellipse;whiteSpace=wrap;html=1;" parent="1" vertex="1">
          <mxGeometry x="-70" y="20" width="80" height="50" as="geometry" />
        </mxCell>
        <mxCell id="xKN2lqhcbGi1oijNFUyC-15" value="Поиск" style="ellipse;whiteSpace=wrap;html=1;" parent="1" vertex="1">
          <mxGeometry x="-70" y="140" width="80" height="50" as="geometry" />
        </mxCell>
        <mxCell id="xKN2lqhcbGi1oijNFUyC-16" value="include" style="endArrow=open;endSize=12;dashed=1;html=1;rounded=0;exitX=0.5;exitY=0;exitDx=0;exitDy=0;entryX=0.5;entryY=1;entryDx=0;entryDy=0;" parent="1" source="xKN2lqhcbGi1oijNFUyC-15" target="xKN2lqhcbGi1oijNFUyC-13" edge="1">
          <mxGeometry width="160" relative="1" as="geometry">
            <mxPoint x="-20" y="150" as="sourcePoint" />
            <mxPoint x="80" y="90" as="targetPoint" />
          </mxGeometry>
        </mxCell>
        <mxCell id="xKN2lqhcbGi1oijNFUyC-17" value="Поиск компаний" style="ellipse;whiteSpace=wrap;html=1;" parent="1" vertex="1">
          <mxGeometry x="190" y="175" width="80" height="50" as="geometry" />
        </mxCell>
        <mxCell id="xKN2lqhcbGi1oijNFUyC-18" value="Поиск курсов" style="ellipse;whiteSpace=wrap;html=1;" parent="1" vertex="1">
          <mxGeometry x="190" y="250" width="80" height="50" as="geometry" />
        </mxCell>
        <mxCell id="xKN2lqhcbGi1oijNFUyC-19" value="Поиск резюме" style="ellipse;whiteSpace=wrap;html=1;" parent="1" vertex="1">
          <mxGeometry x="190" y="110" width="80" height="50" as="geometry" />
        </mxCell>
        <mxCell id="xKN2lqhcbGi1oijNFUyC-20" value="" style="endArrow=block;endSize=16;endFill=0;html=1;rounded=0;entryX=1;entryY=0.5;entryDx=0;entryDy=0;exitX=0;exitY=0.5;exitDx=0;exitDy=0;" parent="1" source="xKL4e-_KKHv5BEFXwnsZ-2" target="xKN2lqhcbGi1oijNFUyC-15" edge="1">
          <mxGeometry width="160" relative="1" as="geometry">
            <mxPoint x="145" y="190" as="sourcePoint" />
            <mxPoint x="80" y="110" as="targetPoint" />
            <Array as="points">
              <mxPoint x="160" y="75" />
              <mxPoint x="160" y="165" />
            </Array>
          </mxGeometry>
        </mxCell>
        <mxCell id="xKN2lqhcbGi1oijNFUyC-22" value="" style="endArrow=block;endSize=16;endFill=0;html=1;rounded=0;entryX=1;entryY=0.5;entryDx=0;entryDy=0;" parent="1" target="xKN2lqhcbGi1oijNFUyC-15" edge="1">
          <mxGeometry width="160" relative="1" as="geometry">
            <mxPoint x="190" y="200" as="sourcePoint" />
            <mxPoint x="300" y="105" as="targetPoint" />
            <Array as="points">
              <mxPoint x="160" y="200" />
              <mxPoint x="160" y="165" />
            </Array>
          </mxGeometry>
        </mxCell>
        <mxCell id="xKN2lqhcbGi1oijNFUyC-24" value="" style="endArrow=block;endSize=16;endFill=0;html=1;rounded=0;entryX=1;entryY=0.5;entryDx=0;entryDy=0;exitX=0;exitY=0.5;exitDx=0;exitDy=0;" parent="1" source="xKN2lqhcbGi1oijNFUyC-18" target="xKN2lqhcbGi1oijNFUyC-15" edge="1">
          <mxGeometry width="160" relative="1" as="geometry">
            <mxPoint x="375" y="195" as="sourcePoint" />
            <mxPoint x="310" y="115" as="targetPoint" />
            <Array as="points">
              <mxPoint x="160" y="275" />
              <mxPoint x="160" y="165" />
            </Array>
          </mxGeometry>
        </mxCell>
        <mxCell id="xKN2lqhcbGi1oijNFUyC-21" value="Extends" style="endArrow=block;endSize=16;endFill=0;html=1;rounded=0;entryX=1;entryY=0.5;entryDx=0;entryDy=0;exitX=0;exitY=0.5;exitDx=0;exitDy=0;" parent="1" source="xKN2lqhcbGi1oijNFUyC-19" target="xKN2lqhcbGi1oijNFUyC-15" edge="1">
          <mxGeometry width="160" relative="1" as="geometry">
            <mxPoint x="355" y="175" as="sourcePoint" />
            <mxPoint x="290" y="95" as="targetPoint" />
            <Array as="points">
              <mxPoint x="160" y="135" />
              <mxPoint x="160" y="165" />
            </Array>
            <mxPoint as="offset" />
          </mxGeometry>
        </mxCell>
        <mxCell id="OLCqNQPAtNIm71CDr3BE-1" value="Выложить вакансию" style="ellipse;whiteSpace=wrap;html=1;" vertex="1" parent="1">
          <mxGeometry x="159.5" y="600" width="91" height="60" as="geometry" />
        </mxCell>
        <mxCell id="OLCqNQPAtNIm71CDr3BE-3" value="Зарегестрирвать компанию/частное лицо" style="ellipse;whiteSpace=wrap;html=1;" vertex="1" parent="1">
          <mxGeometry x="-78.25" y="580" width="120" height="80" as="geometry" />
        </mxCell>
        <mxCell id="OLCqNQPAtNIm71CDr3BE-4" value="Extends" style="endArrow=block;endSize=16;endFill=0;html=1;rounded=0;exitX=0;exitY=0.5;exitDx=0;exitDy=0;entryX=1;entryY=0.5;entryDx=0;entryDy=0;" edge="1" parent="1" source="OLCqNQPAtNIm71CDr3BE-1" target="OLCqNQPAtNIm71CDr3BE-3">
          <mxGeometry width="160" relative="1" as="geometry">
            <mxPoint x="21.75" y="470" as="sourcePoint" />
            <mxPoint x="181.75" y="470" as="targetPoint" />
          </mxGeometry>
        </mxCell>
        <mxCell id="OLCqNQPAtNIm71CDr3BE-6" value="" style="endArrow=none;html=1;rounded=0;entryX=0;entryY=0.5;entryDx=0;entryDy=0;" edge="1" parent="1" source="xKL4e-_KKHv5BEFXwnsZ-1" target="xKN2lqhcbGi1oijNFUyC-15">
          <mxGeometry width="50" height="50" relative="1" as="geometry">
            <mxPoint x="-40" y="240" as="sourcePoint" />
            <mxPoint x="10" y="190" as="targetPoint" />
          </mxGeometry>
        </mxCell>
        <mxCell id="OLCqNQPAtNIm71CDr3BE-7" value="" style="endArrow=none;html=1;rounded=0;entryX=0;entryY=0.5;entryDx=0;entryDy=0;exitX=0.5;exitY=0.5;exitDx=0;exitDy=0;exitPerimeter=0;" edge="1" parent="1" source="xKL4e-_KKHv5BEFXwnsZ-1" target="xKL4e-_KKHv5BEFXwnsZ-21">
          <mxGeometry width="50" height="50" relative="1" as="geometry">
            <mxPoint x="120" y="660" as="sourcePoint" />
            <mxPoint x="170" y="610" as="targetPoint" />
          </mxGeometry>
        </mxCell>
        <mxCell id="OLCqNQPAtNIm71CDr3BE-8" value="" style="endArrow=none;html=1;rounded=0;entryX=0;entryY=0.5;entryDx=0;entryDy=0;" edge="1" parent="1" source="xKL4e-_KKHv5BEFXwnsZ-14" target="xKN2lqhcbGi1oijNFUyC-15">
          <mxGeometry width="50" height="50" relative="1" as="geometry">
            <mxPoint x="140" y="320" as="sourcePoint" />
            <mxPoint x="190" y="270" as="targetPoint" />
          </mxGeometry>
        </mxCell>
        <mxCell id="OLCqNQPAtNIm71CDr3BE-9" value="" style="endArrow=none;html=1;rounded=0;entryX=0.014;entryY=0.383;entryDx=0;entryDy=0;entryPerimeter=0;" edge="1" parent="1" source="xKL4e-_KKHv5BEFXwnsZ-1" target="xKL4e-_KKHv5BEFXwnsZ-20">
          <mxGeometry width="50" height="50" relative="1" as="geometry">
            <mxPoint x="-240" y="510.0018262465586" as="sourcePoint" />
            <mxPoint x="200" y="621.63" as="targetPoint" />
          </mxGeometry>
        </mxCell>
        <mxCell id="OLCqNQPAtNIm71CDr3BE-10" value="Extends" style="endArrow=block;endSize=16;endFill=0;html=1;rounded=0;entryX=1;entryY=0.5;entryDx=0;entryDy=0;exitX=0;exitY=0.5;exitDx=0;exitDy=0;" edge="1" parent="1" source="xKN2lqhcbGi1oijNFUyC-4" target="xKN2lqhcbGi1oijNFUyC-1">
          <mxGeometry width="160" relative="1" as="geometry">
            <mxPoint x="145.5" y="-160" as="sourcePoint" />
            <mxPoint x="-78.5" y="-130" as="targetPoint" />
            <Array as="points" />
            <mxPoint as="offset" />
          </mxGeometry>
        </mxCell>
        <mxCell id="OLCqNQPAtNIm71CDr3BE-11" value="" style="endArrow=none;html=1;rounded=0;entryX=0;entryY=0.5;entryDx=0;entryDy=0;" edge="1" parent="1" source="xKL4e-_KKHv5BEFXwnsZ-19" target="OLCqNQPAtNIm71CDr3BE-3">
          <mxGeometry width="50" height="50" relative="1" as="geometry">
            <mxPoint x="321.75" y="440" as="sourcePoint" />
            <mxPoint x="371.75" y="390" as="targetPoint" />
          </mxGeometry>
        </mxCell>
        <mxCell id="OLCqNQPAtNIm71CDr3BE-12" value="Войти в аккаунт" style="ellipse;whiteSpace=wrap;html=1;" vertex="1" parent="1">
          <mxGeometry x="-50" y="380" width="95.5" height="60" as="geometry" />
        </mxCell>
        <mxCell id="OLCqNQPAtNIm71CDr3BE-13" value="Выйти из аккаунта" style="ellipse;whiteSpace=wrap;html=1;" vertex="1" parent="1">
          <mxGeometry x="165.5" y="360" width="95.5" height="60" as="geometry" />
        </mxCell>
        <mxCell id="OLCqNQPAtNIm71CDr3BE-14" value="" style="endArrow=none;html=1;rounded=0;entryX=0;entryY=0.5;entryDx=0;entryDy=0;" edge="1" parent="1" source="xKL4e-_KKHv5BEFXwnsZ-14" target="OLCqNQPAtNIm71CDr3BE-12">
          <mxGeometry width="50" height="50" relative="1" as="geometry">
            <mxPoint x="-240" y="520.38" as="sourcePoint" />
            <mxPoint x="180" y="651.63" as="targetPoint" />
          </mxGeometry>
        </mxCell>
        <mxCell id="OLCqNQPAtNIm71CDr3BE-15" value="" style="endArrow=none;html=1;rounded=0;entryX=0;entryY=0.5;entryDx=0;entryDy=0;" edge="1" parent="1" source="xKL4e-_KKHv5BEFXwnsZ-19" target="OLCqNQPAtNIm71CDr3BE-12">
          <mxGeometry width="50" height="50" relative="1" as="geometry">
            <mxPoint x="130" y="701.63" as="sourcePoint" />
            <mxPoint x="180" y="651.63" as="targetPoint" />
          </mxGeometry>
        </mxCell>
        <mxCell id="OLCqNQPAtNIm71CDr3BE-16" value="Extends" style="endArrow=block;endSize=16;endFill=0;html=1;rounded=0;exitX=0;exitY=0.5;exitDx=0;exitDy=0;entryX=1;entryY=0.5;entryDx=0;entryDy=0;" edge="1" parent="1" source="OLCqNQPAtNIm71CDr3BE-13" target="OLCqNQPAtNIm71CDr3BE-12">
          <mxGeometry width="160" relative="1" as="geometry">
            <mxPoint x="178.25" y="730" as="sourcePoint" />
            <mxPoint x="58.25" y="750" as="targetPoint" />
          </mxGeometry>
        </mxCell>
        <mxCell id="OLCqNQPAtNIm71CDr3BE-17" value="Некорректный пароль" style="ellipse;whiteSpace=wrap;html=1;" vertex="1" parent="1">
          <mxGeometry x="157.25" y="440" width="95.5" height="60" as="geometry" />
        </mxCell>
        <mxCell id="OLCqNQPAtNIm71CDr3BE-18" value="Extends" style="endArrow=block;endSize=16;endFill=0;html=1;rounded=0;exitX=0;exitY=0.5;exitDx=0;exitDy=0;entryX=1;entryY=1;entryDx=0;entryDy=0;" edge="1" parent="1" source="OLCqNQPAtNIm71CDr3BE-17" target="OLCqNQPAtNIm71CDr3BE-12">
          <mxGeometry width="160" relative="1" as="geometry">
            <mxPoint x="188" y="600" as="sourcePoint" />
            <mxPoint x="83" y="600" as="targetPoint" />
          </mxGeometry>
        </mxCell>
        <mxCell id="OLCqNQPAtNIm71CDr3BE-20" value="&lt;div&gt;Отфильтровать&lt;/div&gt;" style="ellipse;whiteSpace=wrap;html=1;" vertex="1" parent="1">
          <mxGeometry x="480" y="-20" width="110" height="50" as="geometry" />
        </mxCell>
        <mxCell id="OLCqNQPAtNIm71CDr3BE-21" value="По зарплате" style="ellipse;whiteSpace=wrap;html=1;" vertex="1" parent="1">
          <mxGeometry x="712.5" y="-120" width="90" height="50" as="geometry" />
        </mxCell>
        <mxCell id="OLCqNQPAtNIm71CDr3BE-22" value="По дате публикации&lt;div&gt;&lt;br&gt;&lt;/div&gt;" style="ellipse;whiteSpace=wrap;html=1;" vertex="1" parent="1">
          <mxGeometry x="715" y="-60" width="90" height="50" as="geometry" />
        </mxCell>
        <mxCell id="OLCqNQPAtNIm71CDr3BE-23" value="По типу занятости" style="ellipse;whiteSpace=wrap;html=1;" vertex="1" parent="1">
          <mxGeometry x="710" y="-5" width="100" height="60" as="geometry" />
        </mxCell>
        <mxCell id="OLCqNQPAtNIm71CDr3BE-24" value="include" style="endArrow=open;endSize=12;dashed=1;html=1;rounded=0;exitX=1;exitY=0.5;exitDx=0;exitDy=0;entryX=0;entryY=0.5;entryDx=0;entryDy=0;" edge="1" parent="1" source="OLCqNQPAtNIm71CDr3BE-20" target="OLCqNQPAtNIm71CDr3BE-22">
          <mxGeometry width="160" relative="1" as="geometry">
            <mxPoint x="385" y="480" as="sourcePoint" />
            <mxPoint x="545" y="480" as="targetPoint" />
          </mxGeometry>
        </mxCell>
        <mxCell id="OLCqNQPAtNIm71CDr3BE-25" value="include" style="endArrow=open;endSize=12;dashed=1;html=1;rounded=0;exitX=1;exitY=0.5;exitDx=0;exitDy=0;entryX=0;entryY=0.5;entryDx=0;entryDy=0;" edge="1" parent="1" source="OLCqNQPAtNIm71CDr3BE-20" target="OLCqNQPAtNIm71CDr3BE-21">
          <mxGeometry width="160" relative="1" as="geometry">
            <mxPoint x="340" y="420" as="sourcePoint" />
            <mxPoint x="500" y="420" as="targetPoint" />
          </mxGeometry>
        </mxCell>
        <mxCell id="OLCqNQPAtNIm71CDr3BE-26" value="include" style="endArrow=open;endSize=12;dashed=1;html=1;rounded=0;exitX=1;exitY=0.5;exitDx=0;exitDy=0;entryX=0;entryY=0.5;entryDx=0;entryDy=0;" edge="1" parent="1" source="OLCqNQPAtNIm71CDr3BE-20" target="OLCqNQPAtNIm71CDr3BE-23">
          <mxGeometry width="160" relative="1" as="geometry">
            <mxPoint x="405" y="500" as="sourcePoint" />
            <mxPoint x="565" y="500" as="targetPoint" />
          </mxGeometry>
        </mxCell>
        <mxCell id="OLCqNQPAtNIm71CDr3BE-30" value="По степени образования" style="ellipse;whiteSpace=wrap;html=1;" vertex="1" parent="1">
          <mxGeometry x="712.5" y="60" width="100" height="60" as="geometry" />
        </mxCell>
        <mxCell id="OLCqNQPAtNIm71CDr3BE-32" value="include" style="endArrow=open;endSize=12;dashed=1;html=1;rounded=0;exitX=1;exitY=0.5;exitDx=0;exitDy=0;entryX=0;entryY=0.5;entryDx=0;entryDy=0;" edge="1" parent="1" source="OLCqNQPAtNIm71CDr3BE-20" target="OLCqNQPAtNIm71CDr3BE-30">
          <mxGeometry width="160" relative="1" as="geometry">
            <mxPoint x="520" y="325" as="sourcePoint" />
            <mxPoint x="615" y="490" as="targetPoint" />
          </mxGeometry>
        </mxCell>
        <mxCell id="OLCqNQPAtNIm71CDr3BE-33" value="Extends" style="endArrow=block;endSize=16;endFill=0;html=1;rounded=0;entryX=1;entryY=0.5;entryDx=0;entryDy=0;exitX=0;exitY=0.5;exitDx=0;exitDy=0;" edge="1" parent="1" source="OLCqNQPAtNIm71CDr3BE-20" target="xKN2lqhcbGi1oijNFUyC-19">
          <mxGeometry width="160" relative="1" as="geometry">
            <mxPoint x="450" y="10" as="sourcePoint" />
            <mxPoint x="330" y="190" as="targetPoint" />
          </mxGeometry>
        </mxCell>
        <mxCell id="OLCqNQPAtNIm71CDr3BE-34" value="&lt;div&gt;Отфильтровать&lt;/div&gt;" style="ellipse;whiteSpace=wrap;html=1;" vertex="1" parent="1">
          <mxGeometry x="480" y="225" width="110" height="50" as="geometry" />
        </mxCell>
        <mxCell id="OLCqNQPAtNIm71CDr3BE-36" value="&lt;div&gt;По наличию открытых вакансий&lt;/div&gt;" style="ellipse;whiteSpace=wrap;html=1;" vertex="1" parent="1">
          <mxGeometry x="712.5" y="230" width="107.5" height="60" as="geometry" />
        </mxCell>
        <mxCell id="OLCqNQPAtNIm71CDr3BE-37" value="По открытости работодателя" style="ellipse;whiteSpace=wrap;html=1;" vertex="1" parent="1">
          <mxGeometry x="720" y="305" width="100" height="60" as="geometry" />
        </mxCell>
        <mxCell id="OLCqNQPAtNIm71CDr3BE-38" value="include" style="endArrow=open;endSize=12;dashed=1;html=1;rounded=0;exitX=1;exitY=0.5;exitDx=0;exitDy=0;entryX=0;entryY=0.5;entryDx=0;entryDy=0;" edge="1" parent="1" source="OLCqNQPAtNIm71CDr3BE-34" target="OLCqNQPAtNIm71CDr3BE-36">
          <mxGeometry width="160" relative="1" as="geometry">
            <mxPoint x="615" y="645" as="sourcePoint" />
            <mxPoint x="775" y="645" as="targetPoint" />
          </mxGeometry>
        </mxCell>
        <mxCell id="OLCqNQPAtNIm71CDr3BE-40" value="include" style="endArrow=open;endSize=12;dashed=1;html=1;rounded=0;exitX=1;exitY=0.5;exitDx=0;exitDy=0;entryX=0;entryY=0.5;entryDx=0;entryDy=0;" edge="1" parent="1" source="OLCqNQPAtNIm71CDr3BE-34" target="OLCqNQPAtNIm71CDr3BE-37">
          <mxGeometry width="160" relative="1" as="geometry">
            <mxPoint x="635" y="665" as="sourcePoint" />
            <mxPoint x="795" y="665" as="targetPoint" />
          </mxGeometry>
        </mxCell>
        <mxCell id="OLCqNQPAtNIm71CDr3BE-43" value="По привлекательности работодателя" style="ellipse;whiteSpace=wrap;html=1;" vertex="1" parent="1">
          <mxGeometry x="700" y="160" width="120" height="60" as="geometry" />
        </mxCell>
        <mxCell id="OLCqNQPAtNIm71CDr3BE-45" value="include" style="endArrow=open;endSize=12;dashed=1;html=1;rounded=0;exitX=1;exitY=0.5;exitDx=0;exitDy=0;entryX=0;entryY=0.5;entryDx=0;entryDy=0;" edge="1" parent="1" source="OLCqNQPAtNIm71CDr3BE-34" target="OLCqNQPAtNIm71CDr3BE-43">
          <mxGeometry width="160" relative="1" as="geometry">
            <mxPoint x="740" y="480" as="sourcePoint" />
            <mxPoint x="835" y="645" as="targetPoint" />
          </mxGeometry>
        </mxCell>
        <mxCell id="OLCqNQPAtNIm71CDr3BE-47" value="Extends" style="endArrow=block;endSize=16;endFill=0;html=1;rounded=0;entryX=1;entryY=0.5;entryDx=0;entryDy=0;exitX=0;exitY=0.5;exitDx=0;exitDy=0;" edge="1" parent="1" source="OLCqNQPAtNIm71CDr3BE-34" target="xKN2lqhcbGi1oijNFUyC-17">
          <mxGeometry width="160" relative="1" as="geometry">
            <mxPoint x="460" y="120" as="sourcePoint" />
            <mxPoint x="280" y="145" as="targetPoint" />
          </mxGeometry>
        </mxCell>
        <mxCell id="OLCqNQPAtNIm71CDr3BE-48" value="Некорректный формат" style="ellipse;whiteSpace=wrap;html=1;" vertex="1" parent="1">
          <mxGeometry x="-82.75" y="-380" width="95.5" height="60" as="geometry" />
        </mxCell>
        <mxCell id="OLCqNQPAtNIm71CDr3BE-49" value="Extends" style="endArrow=block;endSize=16;endFill=0;html=1;rounded=0;exitX=0.5;exitY=1;exitDx=0;exitDy=0;entryX=0.5;entryY=0;entryDx=0;entryDy=0;" edge="1" parent="1" source="OLCqNQPAtNIm71CDr3BE-48" target="xKL4e-_KKHv5BEFXwnsZ-20">
          <mxGeometry width="160" relative="1" as="geometry">
            <mxPoint x="57.25" y="-40" as="sourcePoint" />
            <mxPoint x="-75" y="-360" as="targetPoint" />
          </mxGeometry>
        </mxCell>
        <mxCell id="OLCqNQPAtNIm71CDr3BE-50" value="Телефон" style="ellipse;whiteSpace=wrap;html=1;" vertex="1" parent="1">
          <mxGeometry x="45.5" y="-500" width="91" height="60" as="geometry" />
        </mxCell>
        <mxCell id="OLCqNQPAtNIm71CDr3BE-51" value="include" style="endArrow=open;endSize=12;dashed=1;html=1;rounded=0;exitX=1;exitY=0.5;exitDx=0;exitDy=0;entryX=0;entryY=0.5;entryDx=0;entryDy=0;" edge="1" parent="1" target="OLCqNQPAtNIm71CDr3BE-50" source="OLCqNQPAtNIm71CDr3BE-48">
          <mxGeometry width="160" relative="1" as="geometry">
            <mxPoint x="55" y="-365" as="sourcePoint" />
            <mxPoint x="260" y="-265" as="targetPoint" />
          </mxGeometry>
        </mxCell>
        <mxCell id="OLCqNQPAtNIm71CDr3BE-56" value="Email" style="ellipse;whiteSpace=wrap;html=1;" vertex="1" parent="1">
          <mxGeometry x="-78.25" y="-500" width="91" height="60" as="geometry" />
        </mxCell>
        <mxCell id="OLCqNQPAtNIm71CDr3BE-57" value="include" style="endArrow=open;endSize=12;dashed=1;html=1;rounded=0;exitX=0.5;exitY=0;exitDx=0;exitDy=0;entryX=0.5;entryY=1;entryDx=0;entryDy=0;" edge="1" parent="1" target="OLCqNQPAtNIm71CDr3BE-56" source="OLCqNQPAtNIm71CDr3BE-48">
          <mxGeometry width="160" relative="1" as="geometry">
            <mxPoint x="-70" y="-400" as="sourcePoint" />
            <mxPoint x="134" y="-400" as="targetPoint" />
          </mxGeometry>
        </mxCell>
        <mxCell id="OLCqNQPAtNIm71CDr3BE-59" value="Отсутсвует желаемая должность" style="ellipse;whiteSpace=wrap;html=1;" vertex="1" parent="1">
          <mxGeometry x="-200" y="-500" width="91" height="60" as="geometry" />
        </mxCell>
        <mxCell id="OLCqNQPAtNIm71CDr3BE-60" value="include" style="endArrow=open;endSize=12;dashed=1;html=1;rounded=0;exitX=0;exitY=0;exitDx=0;exitDy=0;entryX=0.5;entryY=1;entryDx=0;entryDy=0;" edge="1" parent="1" target="OLCqNQPAtNIm71CDr3BE-59" source="OLCqNQPAtNIm71CDr3BE-48">
          <mxGeometry width="160" relative="1" as="geometry">
            <mxPoint x="98.25" y="-390" as="sourcePoint" />
            <mxPoint x="267.25" y="-410" as="targetPoint" />
          </mxGeometry>
        </mxCell>
        <mxCell id="OLCqNQPAtNIm71CDr3BE-68" value="&lt;div&gt;Отфильтровать&lt;/div&gt;" style="ellipse;whiteSpace=wrap;html=1;" vertex="1" parent="1">
          <mxGeometry x="480" y="445" width="110" height="50" as="geometry" />
        </mxCell>
        <mxCell id="OLCqNQPAtNIm71CDr3BE-69" value="&lt;div&gt;По формату обучения&lt;/div&gt;" style="ellipse;whiteSpace=wrap;html=1;" vertex="1" parent="1">
          <mxGeometry x="724.5" y="490" width="90" height="50" as="geometry" />
        </mxCell>
        <mxCell id="OLCqNQPAtNIm71CDr3BE-70" value="По сложности курса" style="ellipse;whiteSpace=wrap;html=1;" vertex="1" parent="1">
          <mxGeometry x="719.5" y="560" width="100" height="60" as="geometry" />
        </mxCell>
        <mxCell id="OLCqNQPAtNIm71CDr3BE-71" value="include" style="endArrow=open;endSize=12;dashed=1;html=1;rounded=0;exitX=1;exitY=0.5;exitDx=0;exitDy=0;entryX=0;entryY=0.5;entryDx=0;entryDy=0;" edge="1" parent="1" source="OLCqNQPAtNIm71CDr3BE-68" target="OLCqNQPAtNIm71CDr3BE-69">
          <mxGeometry width="160" relative="1" as="geometry">
            <mxPoint x="372.5" y="805" as="sourcePoint" />
            <mxPoint x="532.5" y="805" as="targetPoint" />
          </mxGeometry>
        </mxCell>
        <mxCell id="OLCqNQPAtNIm71CDr3BE-72" value="include" style="endArrow=open;endSize=12;dashed=1;html=1;rounded=0;exitX=1;exitY=0.5;exitDx=0;exitDy=0;entryX=0;entryY=0.5;entryDx=0;entryDy=0;" edge="1" parent="1" source="OLCqNQPAtNIm71CDr3BE-68" target="OLCqNQPAtNIm71CDr3BE-70">
          <mxGeometry width="160" relative="1" as="geometry">
            <mxPoint x="392.5" y="825" as="sourcePoint" />
            <mxPoint x="552.5" y="825" as="targetPoint" />
          </mxGeometry>
        </mxCell>
        <mxCell id="OLCqNQPAtNIm71CDr3BE-73" value="По специализации курса" style="ellipse;whiteSpace=wrap;html=1;" vertex="1" parent="1">
          <mxGeometry x="712" y="410" width="115" height="60" as="geometry" />
        </mxCell>
        <mxCell id="OLCqNQPAtNIm71CDr3BE-74" value="include" style="endArrow=open;endSize=12;dashed=1;html=1;rounded=0;exitX=1;exitY=0.5;exitDx=0;exitDy=0;entryX=0;entryY=0.5;entryDx=0;entryDy=0;" edge="1" parent="1" source="OLCqNQPAtNIm71CDr3BE-68" target="OLCqNQPAtNIm71CDr3BE-73">
          <mxGeometry width="160" relative="1" as="geometry">
            <mxPoint x="497.5" y="640" as="sourcePoint" />
            <mxPoint x="592.5" y="805" as="targetPoint" />
          </mxGeometry>
        </mxCell>
        <mxCell id="OLCqNQPAtNIm71CDr3BE-75" value="Extends" style="endArrow=block;endSize=16;endFill=0;html=1;rounded=0;entryX=1;entryY=0.5;entryDx=0;entryDy=0;exitX=0;exitY=0.5;exitDx=0;exitDy=0;" edge="1" parent="1" source="OLCqNQPAtNIm71CDr3BE-68" target="xKN2lqhcbGi1oijNFUyC-18">
          <mxGeometry width="160" relative="1" as="geometry">
            <mxPoint x="490" y="260" as="sourcePoint" />
            <mxPoint x="280" y="210" as="targetPoint" />
          </mxGeometry>
        </mxCell>
        <mxCell id="OLCqNQPAtNIm71CDr3BE-76" value="По стоимости курса" style="ellipse;whiteSpace=wrap;html=1;" vertex="1" parent="1">
          <mxGeometry x="722.5" y="650" width="100" height="60" as="geometry" />
        </mxCell>
        <mxCell id="OLCqNQPAtNIm71CDr3BE-77" value="include" style="endArrow=open;endSize=12;dashed=1;html=1;rounded=0;exitX=1;exitY=0.5;exitDx=0;exitDy=0;entryX=0;entryY=0.5;entryDx=0;entryDy=0;" edge="1" parent="1" source="OLCqNQPAtNIm71CDr3BE-68" target="OLCqNQPAtNIm71CDr3BE-76">
          <mxGeometry width="160" relative="1" as="geometry">
            <mxPoint x="600" y="480" as="sourcePoint" />
            <mxPoint x="729" y="600" as="targetPoint" />
          </mxGeometry>
        </mxCell>
      </root>
    </mxGraphModel>
  </diagram>
</mxfile>
